<?xml version="1.0" encoding="iso-8859-1"?>
<svg version="1.1" xmlns="http://www.w3.org/2000/svg" xmlns:xlink="http://www.w3.org/1999/xlink">
    <symbol id="twitter" viewBox="0 0 474.006 474.006">
        <circle style="fill:#13B3CA;" cx="237.003" cy="237.003" r="237.003"/>
        <path style="fill:#10ABB6;" d="M404.567,69.421c92.545,92.541,92.552,242.59-0.004,335.142
            c-92.545,92.549-242.601,92.549-335.142,0.007L404.567,69.421z"/>
        <path style="fill:#0EA2A4;" d="M471.821,268.565l-64.048-64.048l-5.28,5.276l-80.684-80.68l-4.183,4.18l-9.684-9.684l-11.831,11.831
            l-9.586-9.583l-15.42,15.416l18.817,18.814l-72.257,72.265l-70.42-70.412l-15.416,15.412l20.295,20.292l-14.282,14.279l23.3,23.3
            l-10.271,10.271l28.385,28.389l-4.632,4.636l26.054,26.058l-30.604,30.608l-22.799-22.795l-22.02,22.02l-27.322-27.326l-5.493,5.497
            l160.787,160.787C365.993,465.726,457.071,379.242,471.821,268.565z"/>
        <path style="fill:#FFFFFF;" d="M370.487,226.792c18.941-1.56,31.783-10.174,36.729-21.856c-6.836,4.198-28.044,8.774-39.756,4.412
            c-0.572-2.746-1.212-5.366-1.841-7.719c-8.924-32.774-39.479-59.168-71.494-55.984c2.589-1.044,5.224-2.021,7.839-2.892
            c3.521-1.265,24.198-4.632,20.946-11.929c-2.746-6.417-28.007,4.853-32.763,6.327c6.279-2.361,16.662-6.425,17.77-13.639
            c-9.62,1.317-19.061,5.867-26.353,12.483c2.63-2.84,4.629-6.294,5.055-10.013c-25.665,16.389-40.654,49.432-52.778,81.488
            c-9.523-9.227-17.964-16.497-25.541-20.531c-21.242-11.397-46.641-23.285-86.513-38.084c-1.224,13.19,6.522,30.735,28.845,42.398
            c-4.838-0.647-13.672,0.801-20.756,2.492c2.885,15.113,12.288,27.562,37.773,33.586c-11.644,0.767-17.661,3.416-23.113,9.126
            c5.295,10.511,18.237,22.881,41.504,20.34c-25.867,11.15-10.541,31.812,10.514,28.729c-35.921,37.103-92.556,34.379-125.076,3.349
            c84.908,115.699,269.485,68.422,296.98-43.019c20.61,0.172,32.725-7.139,40.235-15.199
            C396.817,232.674,379.609,230.593,370.487,226.792z"/>
    </symbol>
    <symbol id="instagram" viewBox="0 0 473.931 473.931">
        <circle style="fill:#527FA2;" cx="236.966" cy="236.966" r="236.966"/>
        <path style="fill:#467593;" d="M404.518,69.38c92.549,92.549,92.552,242.593,0,335.142c-92.541,92.541-242.593,92.545-335.138,0
            L404.518,69.38z"/>
        <path style="fill:#416B82;" d="M472.876,258.922L342.719,128.765l-8.647,8.647l-16.969-16.973l-15.671,15.67l-14.267-14.267
            l-55.898,55.902l-59.498-59.505l-5.803,5.803l4.209,4.209l-2.615,2.616l-12.161-12.161l-6.035,6.035l5.613,5.613l-5.422,5.422
            l-10.526-10.526l-12.584,12.584l11.461,11.461l-11.461,11.461l3.977,3.977l-3.977,3.977l9.59,9.59l-19.412,19.412l47.341,47.337
            l-9.904,9.901l31.24,31.236l-57.922,57.919l128.975,128.975C370.887,463.787,462.377,373.106,472.876,258.922z"/>
        <g>
            <path style="fill:#FFFFFF;" d="M358.689,204.966c-23.023,0-46.057,0-69.08,0c26.959,44.418-3.918,102.861-59.636,97.424
                c-34.039-3.319-65.181-39.902-51.371-81.481c0.868-2.63,2.72-5.5,4.131-8.266c1.34-2.63,3.6-5.714,2.952-7.678
                c-22.638,0-68.493,0-68.493,0v113.959c2.297,22.29,19.828,39.809,42.51,41.919h78.528h78.532
                c22.724-2.342,39.67-21.257,41.919-41.328C358.689,319.516,358.689,224.749,358.689,204.966z"/>
            <path style="fill:#FFFFFF;" d="M231.746,193.748c-9.28,1.115-14.267,3.121-18.9,5.904c-10.638,6.387-20.647,18.297-22.436,34.245
                c-3.618,32.194,20,54.323,47.236,54.323c21.698,0,48.097-15.502,47.827-47.823C285.227,210.964,261.744,190.141,231.746,193.748z
                M272.486,249.837c-3.955,16.292-22.035,28.613-40.74,25.979c-17.882-2.514-37.1-24.737-26.578-49.593
                c3.876-9.149,12.617-19.412,30.705-20.666C258.092,204.016,278.78,223.873,272.486,249.837z"/>
            <path style="fill:#FFFFFF;" d="M345.11,131.751c-6.511-6.511-17.167-12.482-28.931-13.579h-78.293h-0.217h-56.1v61.414H171.53
                v-61.414h-6.196v61.414h-10.047v-60.83c-2.223,0.423-4.4,1.007-6.492,1.729v59.101h-10.039v-54.33
                c-3.195,1.972-6.013,4.198-8.314,6.492c-13.351,13.354-14.424,36.314-13.579,65.544h74.989c3.042-0.707,6.694-4.464,9.448-6.496
                c10.103-7.439,23.098-11.498,36.288-11.641h0.374c13.19,0.142,26.189,4.202,36.288,11.641c2.758,2.032,6.402,5.789,9.444,6.496
                h74.989C359.026,167.773,358.468,145.105,345.11,131.751z M334.813,171.582c0,3.442-2.788,6.23-6.223,6.23h-25.942
                c-3.435,0-6.223-2.788-6.223-6.23v-25.934c0-3.439,2.788-6.223,6.223-6.223h25.942c3.435,0,6.223,2.784,6.223,6.223V171.582z"/>
        </g>
    </symbol>
    <symbol id="googlePlus" viewBox="0 0 473.939 473.939">
        <circle style="fill:#CC3731;" cx="236.969" cy="236.967" r="236.967"/>
        <path style="fill:#BC2B2A;" d="M404.527,69.384c92.542,92.542,92.546,242.588-0.004,335.137
            c-92.546,92.542-242.595,92.542-335.137,0L404.527,69.384z"/>
        <path style="fill:#A52728;" d="M471.95,267.16L336.396,131.606l-28.06,28.06l-29.938-29.938l-38.013,6.93l-13.122,5.545
            l-42.379-8.037l-38.043,23.697l-7.296,72.067l59.244,59.244l-36.355,7.76l-34.926,16.838l-9.167,55.85l103.808,103.812
            c4.905,0.299,9.83,0.505,14.806,0.505C357.59,473.935,457.102,383.769,471.95,267.16z"/>
        <g>
            <path style="fill:#FFFFFF;" d="M235.648,141.99c2.193,1.355,4.636,3.33,7.36,5.931c2.615,2.713,5.171,6.05,7.682,9.991
                c2.402,3.734,4.531,8.127,6.391,13.212c1.523,5.078,2.286,11.012,2.286,17.788c-0.198,12.423-2.945,22.357-8.232,29.818
                c-2.574,3.611-5.321,6.941-8.217,9.998c-3.207,3.035-6.619,6.151-10.23,9.31c-2.08,2.144-3.981,4.569-5.744,7.285
                c-2.065,2.821-3.102,6.092-3.102,9.815c0,3.641,1.059,6.623,3.188,8.988c1.792,2.26,3.555,4.239,5.253,5.934l11.783,9.654
                c7.315,6.002,13.736,12.572,19.255,19.805c5.197,7.353,7.899,16.947,8.131,28.797c0,16.827-7.439,31.727-22.301,44.729
                c-15.394,13.448-37.639,20.382-66.694,20.827c-24.325-0.221-42.484-5.407-54.484-15.536c-12.093-9.478-18.159-20.801-18.159-33.99
                c0-6.417,1.961-13.594,5.92-21.482c3.809-7.876,10.728-14.817,20.752-20.793c11.237-6.413,23.053-10.702,35.438-12.853
                c12.258-1.792,22.432-2.818,30.54-3.035c-2.507-3.3-4.741-6.818-6.698-10.559c-2.286-3.637-3.42-8.019-3.42-13.111
                c0-3.065,0.43-5.635,1.302-7.667c0.76-2.17,1.474-4.135,2.118-5.964c-3.944,0.445-7.667,0.681-11.147,0.681
                c-18.492-0.236-32.583-6.05-42.278-17.448c-10.159-10.63-15.233-22.993-15.233-37.1c0-17.059,7.184-32.52,21.571-46.413
                c9.871-8.127,20.127-13.418,30.765-15.925c10.537-2.144,20.411-3.214,29.616-3.214h69.451l-21.444,12.524h-21.422V141.99z
                M249.055,341.883c0-8.819-2.874-16.486-8.61-23.034c-6.092-6.208-15.596-13.826-28.535-22.874
                c-2.223-0.236-4.819-0.341-7.798-0.341c-1.77-0.217-6.305,0-13.598,0.677c-7.188,1.018-14.548,2.657-22.065,4.917
                c-1.774,0.674-4.251,1.695-7.457,3.046c-3.203,1.471-6.466,3.566-9.789,6.271c-3.207,2.821-5.92,6.32-8.12,10.511
                c-2.556,4.408-3.809,9.714-3.809,15.918c0,12.206,5.512,22.26,16.565,30.17c10.514,7.899,24.879,11.962,43.132,12.198
                c16.363-0.236,28.86-3.843,37.474-10.844C244.853,361.595,249.055,352.738,249.055,341.883z M200.648,240.092
                c9.141-0.337,16.759-3.63,22.847-9.856c2.945-4.412,4.831-8.939,5.669-13.579c0.505-4.64,0.763-8.535,0.763-11.716
                c0-13.68-3.506-27.502-10.507-41.403c-3.289-6.668-7.615-12.112-12.977-16.295c-5.474-3.944-11.768-6.047-18.877-6.275
                c-9.414,0.228-17.227,4.019-23.472,11.379c-5.261,7.689-7.779,16.292-7.543,25.8c0,12.554,3.667,25.613,11.016,39.203
                c3.562,6.335,8.146,11.708,13.788,16.123C186.979,237.892,193.404,240.092,200.648,240.092z"/>
            <polygon style="fill:#FFFFFF;" points="372.59,167.4 336.157,167.4 336.157,130.948 318.499,130.948 318.499,167.4 282.065,167.4 
                282.065,185.05 318.499,185.05 318.499,221.488 336.157,221.488 336.157,185.05 372.59,185.05 	"/>
        </g>
    </symbol>
    <symbol id="facebook" viewBox="0 0 474.294 474.294">
        <circle style="fill:#3A5A98;" cx="237.111" cy="236.966" r="236.966"/>
        <path style="fill:#345387;" d="M404.742,69.754c92.541,92.541,92.545,242.586-0.004,335.134
            c-92.545,92.541-242.593,92.541-335.134,0L404.742,69.754z"/>
        <path style="fill:#2E4D72;" d="M472.543,263.656L301.129,92.238l-88.998,88.998l5.302,5.302l-50.671,50.667l41.474,41.474
            l-5.455,5.452l44.901,44.901l-51.764,51.764l88.429,88.429C384.065,449.045,461.037,366.255,472.543,263.656z"/>
        <path style="fill:#FFFFFF;" d="M195.682,148.937c0,7.27,0,39.741,0,39.741h-29.115v48.598h29.115v144.402h59.808V237.276h40.134
            c0,0,3.76-23.307,5.579-48.781c-5.224,0-45.485,0-45.485,0s0-28.276,0-33.231c0-4.962,6.518-11.641,12.965-11.641
            c6.436,0,20.015,0,32.587,0c0-6.623,0-29.481,0-50.592c-16.786,0-35.883,0-44.306,0C194.201,93.028,195.682,141.671,195.682,148.937
            z"/>
    </symbol>
    <symbol id="youtube" viewBox="0 0 473.931 473.931">
        <circle style="fill:#D42428;" cx="236.966" cy="236.966" r="236.966"/>
        <path style="fill:#CC202D;" d="M404.518,69.38c92.541,92.549,92.549,242.593,0,335.142c-92.541,92.541-242.593,92.545-335.142,0
            L404.518,69.38z"/>
        <path style="fill:#BA202E;" d="M469.168,284.426L351.886,167.148l-138.322,15.749l-83.669,129.532l156.342,156.338
            C378.157,449.322,450.422,376.612,469.168,284.426z"/>
        <path style="fill:#FFFFFF;" d="M360.971,191.238c0-19.865-16.093-35.966-35.947-35.966H156.372c-19.85,0-35.94,16.105-35.94,35.966
            v96.444c0,19.865,16.093,35.966,35.94,35.966h168.649c19.858,0,35.947-16.105,35.947-35.966v-96.444H360.971z M216.64,280.146
            v-90.584l68.695,45.294L216.64,280.146z"/>
    </symbol>
</svg>